<svg aria-hidden="true" style="position:absolute;width:0;height:0" xmlns="http://www.w3.org/2000/svg" overflow="hidden"><defs><symbol id="arrow" viewBox="0 0 32 32"><path d="M17.333 28V7.219l7.152 7.152a1.332 1.332 0 1 0 1.885-1.886l-9.428-9.428a1.35 1.35 0 0 0-.203-.166c-.034-.022-.07-.038-.105-.057-.041-.022-.081-.047-.124-.065-.045-.019-.092-.03-.138-.043-.037-.011-.072-.025-.11-.033A1.353 1.353 0 0 0 16 2.667h-.003a1.32 1.32 0 0 0-.258.026c-.04.008-.077.023-.116.035-.044.013-.089.023-.132.041-.046.019-.088.045-.132.069-.033.018-.066.032-.097.053a1.372 1.372 0 0 0-.205.167L5.63 12.485a1.333 1.333 0 1 0 1.886 1.886l7.151-7.152V28a1.333 1.333 0 0 0 2.666 0z"/></symbol><symbol id="facebook" viewBox="0 0 32 32"><path d="M18.478 32V17.404h4.897l.735-5.69h-5.632V8.082c0-1.647.455-2.769 2.82-2.769l3.01-.001V.223C23.787.155 22 0 19.92 0c-4.343 0-7.317 2.651-7.317 7.519v4.196H7.691v5.69h4.912v14.596h5.874z"/></symbol><symbol id="telegram" viewBox="0 0 32 32"><path d="M24.512 30.372a904.93 904.93 0 0 1-7.464-5.416l-4.128 3.897a1.154 1.154 0 0 1-1.081.276 1.17 1.17 0 0 1-.804-.768c-1.009-2.973-2.945-8.82-2.945-8.82S3.947 18.228.791 17.284A1.105 1.105 0 0 1 0 16.265 1.1 1.1 0 0 1 .723 15.2C7.76 12.596 24.978 6.136 30.568 4.067c.363-.135.769-.063 1.063.187s.427.637.347 1.011c-1.055 4.953-3.865 18.736-5.024 24.181a1.546 1.546 0 0 1-.965 1.12 1.585 1.585 0 0 1-1.476-.193zM9.832 18.803l2.239 7.384.497-4.676 13.58-12.248a.37.37 0 0 0 .044-.503.379.379 0 0 0-.501-.085L9.832 18.803z"/></symbol><symbol id="youtube" viewBox="0 0 32 32"><path d="M31.327 8.273a4.026 4.026 0 0 0-2.756-2.777l-.028-.007c-2.493-.668-12.528-.668-12.528-.668s-10.009-.013-12.528.668A4.026 4.026 0 0 0 .71 8.245l-.007.028C.26 10.554.007 13.176.007 15.858v.163-.008.126c0 2.682.253 5.304.737 7.845l-.041-.26a4.026 4.026 0 0 0 2.756 2.777l.028.007c2.491.669 12.528.669 12.528.669s10.008 0 12.528-.669a4.026 4.026 0 0 0 2.777-2.756l.007-.028c.425-2.233.668-4.803.668-7.429l-.001-.297v.015l.001-.31c0-2.626-.243-5.196-.708-7.687l.04.258zM12.812 20.801V11.21l8.352 4.803z"/></symbol></defs></svg>