<svg aria-hidden="true" style="position: absolute; width: 0; height: 0; overflow: hidden;" version="1.1" xmlns="http://www.w3.org/2000/svg" xmlns:xlink="http://www.w3.org/1999/xlink">
<defs>
<symbol id="arrow" viewBox="0 0 32 32">
<title>arrow</title>
<path d="M17.333 28v-20.781l7.152 7.152c0.52 0.521 1.365 0.521 1.885 0s0.521-1.365 0-1.886l-9.428-9.428c-0.062-0.062-0.13-0.117-0.203-0.166-0.034-0.022-0.070-0.038-0.105-0.057-0.041-0.022-0.081-0.047-0.124-0.065-0.045-0.019-0.092-0.030-0.138-0.043-0.037-0.011-0.072-0.025-0.11-0.033-0.086-0.017-0.174-0.026-0.262-0.026v0c-0.001 0-0.002 0-0.003 0-0.086 0-0.173 0.009-0.258 0.026-0.040 0.008-0.077 0.023-0.116 0.035-0.044 0.013-0.089 0.023-0.132 0.041-0.046 0.019-0.088 0.045-0.132 0.069-0.033 0.018-0.066 0.032-0.097 0.053-0.074 0.049-0.142 0.105-0.205 0.167l-9.427 9.427c-0.521 0.521-0.521 1.365-0 1.886s1.365 0.521 1.886 0l7.151-7.152v20.781c0 0.736 0.597 1.333 1.333 1.333s1.333-0.597 1.333-1.333z"></path>
</symbol>
<symbol id="facebook" viewBox="0 0 32 32">
<title>fecebook</title>
<path d="M18.478 32v-14.596h4.897l0.735-5.69h-5.632v-3.632c0-1.647 0.455-2.769 2.82-2.769l3.010-0.001v-5.089c-0.521-0.068-2.308-0.223-4.388-0.223-4.343 0-7.317 2.651-7.317 7.519v4.196h-4.912v5.69h4.912v14.596h5.874z"></path>
</symbol>
<symbol id="telegram" viewBox="0 0 32 32">
<title>telegram</title>
<path d="M24.512 30.372c-2.701-1.924-7.464-5.416-7.464-5.416s-2.507 2.367-4.128 3.897c-0.287 0.271-0.697 0.376-1.081 0.276-0.385-0.101-0.677-0.395-0.804-0.768-1.009-2.973-2.945-8.82-2.945-8.82s-4.143-1.313-7.299-2.257c-0.457-0.137-0.775-0.547-0.791-1.019-0.015-0.471 0.276-0.9 0.723-1.065 7.037-2.604 24.255-9.064 29.845-11.133 0.363-0.135 0.769-0.063 1.063 0.187s0.427 0.637 0.347 1.011c-1.055 4.953-3.865 18.736-5.024 24.181-0.109 0.511-0.472 0.932-0.965 1.12-0.493 0.187-1.047 0.111-1.476-0.193zM9.832 18.803l2.239 7.384 0.497-4.676c0 0 8.649-7.801 13.58-12.248 0.144-0.131 0.164-0.349 0.044-0.503-0.119-0.153-0.337-0.189-0.501-0.085-5.715 3.649-15.859 10.128-15.859 10.128z"></path>
</symbol>
<symbol id="youtube" viewBox="0 0 32 32">
<title>youtube</title>
<path d="M31.327 8.273c-0.386-1.353-1.431-2.398-2.756-2.777l-0.028-0.007c-2.493-0.668-12.528-0.668-12.528-0.668s-10.009-0.013-12.528 0.668c-1.353 0.386-2.398 1.431-2.777 2.756l-0.007 0.028c-0.443 2.281-0.696 4.903-0.696 7.585 0 0.054 0 0.109 0 0.163l-0-0.008c-0 0.037-0 0.082-0 0.126 0 2.682 0.253 5.304 0.737 7.845l-0.041-0.26c0.386 1.353 1.431 2.398 2.756 2.777l0.028 0.007c2.491 0.669 12.528 0.669 12.528 0.669s10.008 0 12.528-0.669c1.353-0.386 2.398-1.431 2.777-2.756l0.007-0.028c0.425-2.233 0.668-4.803 0.668-7.429 0-0.099-0-0.198-0.001-0.297l0 0.015c0.001-0.092 0.001-0.201 0.001-0.31 0-2.626-0.243-5.196-0.708-7.687l0.040 0.258zM12.812 20.801v-9.591l8.352 4.803z"></path>
</symbol>
</defs>
</svg>
